<svg xmlns="http://www.w3.org/2000/svg" viewBox="0 0 500 320" fill="none">
  <g fill="#2D3A52">

    <!-- Olive branch LEFT -->
    <ellipse cx="108" cy="118" rx="18" ry="7" transform="rotate(-40 108 118)"/>
    <ellipse cx="85" cy="130" rx="16" ry="6" transform="rotate(-55 85 130)"/>
    <ellipse cx="68" cy="148" rx="14" ry="5.5" transform="rotate(-65 68 148)"/>
    <ellipse cx="58" cy="170" rx="13" ry="5" transform="rotate(-75 58 170)"/>
    <!-- Olive fruits LEFT -->
    <ellipse cx="96" cy="123" rx="5" ry="7" transform="rotate(-40 96 123)" fill="#2D3A52"/>
    <ellipse cx="74" cy="138" rx="4.5" ry="6.5" transform="rotate(-55 74 138)" fill="#2D3A52"/>
    <ellipse cx="60" cy="157" rx="4" ry="6" transform="rotate(-68 60 157)" fill="#2D3A52"/>
    <!-- Branch stem LEFT -->
    <path d="M 250 80 Q 180 90 130 115 Q 90 135 65 175" stroke="#2D3A52" stroke-width="1.8" fill="none"/>

    <!-- Olive branch RIGHT -->
    <ellipse cx="392" cy="118" rx="18" ry="7" transform="rotate(40 392 118)"/>
    <ellipse cx="415" cy="130" rx="16" ry="6" transform="rotate(55 415 130)"/>
    <ellipse cx="432" cy="148" rx="14" ry="5.5" transform="rotate(65 432 148)"/>
    <ellipse cx="442" cy="170" rx="13" ry="5" transform="rotate(75 442 170)"/>
    <!-- Olive fruits RIGHT -->
    <ellipse cx="404" cy="123" rx="5" ry="7" transform="rotate(40 404 123)" fill="#2D3A52"/>
    <ellipse cx="426" cy="138" rx="4.5" ry="6.5" transform="rotate(55 426 138)" fill="#2D3A52"/>
    <ellipse cx="440" cy="157" rx="4" ry="6" transform="rotate(68 440 157)" fill="#2D3A52"/>
    <!-- Branch stem RIGHT -->
    <path d="M 250 80 Q 320 90 370 115 Q 410 135 435 175" stroke="#2D3A52" stroke-width="1.8" fill="none"/>

    <!-- Grape vine center arch -->
    <path d="M 195 95 Q 210 70 250 62 Q 290 70 305 95" stroke="#2D3A52" stroke-width="1.5" fill="none"/>
    <!-- Vine tendrils -->
    <path d="M 200 90 Q 188 78 192 68 Q 196 58 205 62" stroke="#2D3A52" stroke-width="1.2" fill="none"/>
    <path d="M 300 90 Q 312 78 308 68 Q 304 58 295 62" stroke="#2D3A52" stroke-width="1.2" fill="none"/>

    <!-- Grape leaf center -->
    <path d="M 250 62 C 235 50 220 55 222 68 C 224 78 238 80 250 75 C 262 80 276 78 278 68 C 280 55 265 50 250 62 Z"/>
    <!-- Leaf veins -->
    <path d="M 250 62 L 250 75" stroke="#FDF7EE" stroke-width="0.8" fill="none"/>
    <path d="M 250 65 L 238 70" stroke="#FDF7EE" stroke-width="0.6" fill="none"/>
    <path d="M 250 65 L 262 70" stroke="#FDF7EE" stroke-width="0.6" fill="none"/>

    <!-- Side grape leaves -->
    <path d="M 210 80 C 196 70 184 74 186 85 C 188 93 200 95 210 90 C 218 95 228 93 228 85 C 228 74 218 70 210 80 Z" transform="rotate(-15 210 80)"/>
    <path d="M 290 80 C 276 70 264 74 266 85 C 268 93 280 95 290 90 C 298 95 308 93 308 85 C 308 74 298 70 290 80 Z" transform="rotate(15 290 80)"/>

    <!-- Grape cluster - main berries -->
    <circle cx="250" cy="95" r="6.5"/>
    <circle cx="241" cy="107" r="6"/>
    <circle cx="259" cy="107" r="6"/>
    <circle cx="233" cy="118" r="5.5"/>
    <circle cx="250" cy="118" r="5.5"/>
    <circle cx="267" cy="118" r="5.5"/>
    <circle cx="241" cy="129" r="5"/>
    <circle cx="259" cy="129" r="5"/>
    <circle cx="250" cy="140" r="4.5"/>
    <!-- Grape highlight dots -->
    <circle cx="248" cy="93" r="1.5" fill="#FDF7EE" opacity="0.6"/>
    <circle cx="239" cy="105" r="1.4" fill="#FDF7EE" opacity="0.6"/>
    <circle cx="257" cy="105" r="1.4" fill="#FDF7EE" opacity="0.6"/>

  </g>

  <!-- METTLER text -->
  <text x="250" y="210"
    font-family="Georgia, 'Times New Roman', serif"
    font-size="72"
    font-weight="400"
    letter-spacing="6"
    fill="#2D3A52"
    text-anchor="middle"
    dominant-baseline="auto">METTLER</text>

  <!-- WINERY text -->
  <text x="250" y="260"
    font-family="Georgia, 'Times New Roman', serif"
    font-size="30"
    font-weight="400"
    letter-spacing="14"
    fill="#2D3A52"
    text-anchor="middle"
    dominant-baseline="auto">WINERY</text>

</svg>
